<svg xmlns:xlink="http://www.w3.org/1999/xlink" xmlns="http://www.w3.org/2000/svg" version="1.1" viewBox="0 0 10 14" height="14px" width="10px">
    <title>location-filled-gravy-16x16</title>
    <g fill-rule="evenodd" fill="none" stroke-width="1" stroke="none" id="Icons">
        <g transform="translate(-86.000000, -730.000000)" id="icons">
            <g transform="translate(83.000000, 729.000000)" id="Group">
                <path fill="#243746" id="path" d="M8,13.3333333 C10.6666667,10.3616482 12,8.139426 12,6.66666667 C12,4.45752767 10.209139,2.66666667 8,2.66666667 C5.790861,2.66666667 4,4.45752767 4,6.66666667 C4,8.139426 5.33333333,10.3616482 8,13.3333333 Z"></path>
                <path stroke-linejoin="round" stroke-linecap="round" stroke-width="1.5" stroke="#243746" id="fill" d="M8,13.3333333 C10.6666667,10.3616482 12,8.139426 12,6.66666667 C12,4.45752767 10.209139,2.66666667 8,2.66666667 C5.790861,2.66666667 4,4.45752767 4,6.66666667 C4,8.139426 5.33333333,10.3616482 8,13.3333333 Z"></path>
                <circle r="1.5" cy="6" cx="8" fill="#FFFFFF" id="circle"></circle>
            </g>
        </g>
    </g>
</svg>